<mxfile host="Electron" modified="2023-05-14T09:14:39.851Z" agent="Mozilla/5.0 (Macintosh; Intel Mac OS X 10_15_7) AppleWebKit/537.36 (KHTML, like Gecko) draw.io/21.2.8 Chrome/112.0.5615.165 Electron/24.2.0 Safari/537.36" etag="nhp0dbxgcEQGGQ4-i34K" version="21.2.8" type="device" pages="2">
  <diagram name="Installation" id="SvZOQglnoyP26A0mZXFq">
    <mxGraphModel dx="1009" dy="545" grid="1" gridSize="10" guides="1" tooltips="1" connect="1" arrows="1" fold="1" page="1" pageScale="1" pageWidth="827" pageHeight="1169" math="0" shadow="0">
      <root>
        <mxCell id="0" />
        <mxCell id="1" parent="0" />
        <mxCell id="7O5fhOuD_cf1nNYJ2rgv-6" style="rounded=0;orthogonalLoop=1;jettySize=auto;html=1;" edge="1" parent="1" source="7O5fhOuD_cf1nNYJ2rgv-2" target="7O5fhOuD_cf1nNYJ2rgv-5">
          <mxGeometry relative="1" as="geometry" />
        </mxCell>
        <mxCell id="7O5fhOuD_cf1nNYJ2rgv-7" value="Install" style="edgeLabel;html=1;align=center;verticalAlign=middle;resizable=0;points=[];" vertex="1" connectable="0" parent="7O5fhOuD_cf1nNYJ2rgv-6">
          <mxGeometry x="-0.0362" relative="1" as="geometry">
            <mxPoint as="offset" />
          </mxGeometry>
        </mxCell>
        <mxCell id="7O5fhOuD_cf1nNYJ2rgv-2" value="User" style="shape=umlActor;verticalLabelPosition=bottom;verticalAlign=top;html=1;outlineConnect=0;" vertex="1" parent="1">
          <mxGeometry x="60" y="140" width="30" height="60" as="geometry" />
        </mxCell>
        <mxCell id="7O5fhOuD_cf1nNYJ2rgv-3" value="kalakaar app" style="shape=umlLifeline;perimeter=lifelinePerimeter;whiteSpace=wrap;html=1;container=1;dropTarget=0;collapsible=0;recursiveResize=0;outlineConnect=0;portConstraint=eastwest;newEdgeStyle={&quot;edgeStyle&quot;:&quot;elbowEdgeStyle&quot;,&quot;elbow&quot;:&quot;vertical&quot;,&quot;curved&quot;:0,&quot;rounded&quot;:0};" vertex="1" parent="1">
          <mxGeometry x="150" y="70" width="100" height="450" as="geometry" />
        </mxCell>
        <mxCell id="7O5fhOuD_cf1nNYJ2rgv-5" value="" style="html=1;points=[];perimeter=orthogonalPerimeter;outlineConnect=0;targetShapes=umlLifeline;portConstraint=eastwest;newEdgeStyle={&quot;edgeStyle&quot;:&quot;elbowEdgeStyle&quot;,&quot;elbow&quot;:&quot;vertical&quot;,&quot;curved&quot;:0,&quot;rounded&quot;:0};" vertex="1" parent="7O5fhOuD_cf1nNYJ2rgv-3">
          <mxGeometry x="45" y="90" width="10" height="330" as="geometry" />
        </mxCell>
        <mxCell id="7O5fhOuD_cf1nNYJ2rgv-19" value="Execute Pipeline" style="html=1;align=left;spacingLeft=2;endArrow=block;rounded=0;edgeStyle=orthogonalEdgeStyle;curved=0;rounded=0;" edge="1" target="7O5fhOuD_cf1nNYJ2rgv-18" parent="7O5fhOuD_cf1nNYJ2rgv-3">
          <mxGeometry relative="1" as="geometry">
            <mxPoint x="50" y="320" as="sourcePoint" />
            <Array as="points">
              <mxPoint x="80" y="350" />
            </Array>
          </mxGeometry>
        </mxCell>
        <mxCell id="7O5fhOuD_cf1nNYJ2rgv-18" value="" style="html=1;points=[];perimeter=orthogonalPerimeter;outlineConnect=0;targetShapes=umlLifeline;portConstraint=eastwest;newEdgeStyle={&quot;edgeStyle&quot;:&quot;elbowEdgeStyle&quot;,&quot;elbow&quot;:&quot;vertical&quot;,&quot;curved&quot;:0,&quot;rounded&quot;:0};" vertex="1" parent="7O5fhOuD_cf1nNYJ2rgv-3">
          <mxGeometry x="45" y="340" width="10" height="40" as="geometry" />
        </mxCell>
        <mxCell id="7O5fhOuD_cf1nNYJ2rgv-4" value="Remote Version Control Service" style="shape=umlLifeline;perimeter=lifelinePerimeter;whiteSpace=wrap;html=1;container=1;dropTarget=0;collapsible=0;recursiveResize=0;outlineConnect=0;portConstraint=eastwest;newEdgeStyle={&quot;edgeStyle&quot;:&quot;elbowEdgeStyle&quot;,&quot;elbow&quot;:&quot;vertical&quot;,&quot;curved&quot;:0,&quot;rounded&quot;:0};" vertex="1" parent="1">
          <mxGeometry x="440" y="70" width="100" height="450" as="geometry" />
        </mxCell>
        <mxCell id="7O5fhOuD_cf1nNYJ2rgv-9" value="" style="html=1;points=[];perimeter=orthogonalPerimeter;outlineConnect=0;targetShapes=umlLifeline;portConstraint=eastwest;newEdgeStyle={&quot;edgeStyle&quot;:&quot;elbowEdgeStyle&quot;,&quot;elbow&quot;:&quot;vertical&quot;,&quot;curved&quot;:0,&quot;rounded&quot;:0};" vertex="1" parent="7O5fhOuD_cf1nNYJ2rgv-4">
          <mxGeometry x="45" y="100" width="10" height="320" as="geometry" />
        </mxCell>
        <mxCell id="7O5fhOuD_cf1nNYJ2rgv-10" value="Authorize" style="edgeStyle=elbowEdgeStyle;rounded=0;orthogonalLoop=1;jettySize=auto;html=1;elbow=vertical;curved=0;" edge="1" parent="1" source="7O5fhOuD_cf1nNYJ2rgv-5" target="7O5fhOuD_cf1nNYJ2rgv-9">
          <mxGeometry relative="1" as="geometry">
            <Array as="points">
              <mxPoint x="260" y="180" />
            </Array>
          </mxGeometry>
        </mxCell>
        <mxCell id="7O5fhOuD_cf1nNYJ2rgv-11" value="Successful" style="edgeStyle=elbowEdgeStyle;rounded=0;orthogonalLoop=1;jettySize=auto;html=1;elbow=vertical;curved=0;" edge="1" parent="1" source="7O5fhOuD_cf1nNYJ2rgv-9" target="7O5fhOuD_cf1nNYJ2rgv-5">
          <mxGeometry relative="1" as="geometry">
            <mxPoint x="210" y="200" as="targetPoint" />
            <Array as="points">
              <mxPoint x="210" y="200" />
            </Array>
          </mxGeometry>
        </mxCell>
        <mxCell id="7O5fhOuD_cf1nNYJ2rgv-12" style="edgeStyle=elbowEdgeStyle;rounded=0;orthogonalLoop=1;jettySize=auto;html=1;elbow=vertical;curved=0;" edge="1" parent="1" source="7O5fhOuD_cf1nNYJ2rgv-5" target="7O5fhOuD_cf1nNYJ2rgv-9">
          <mxGeometry relative="1" as="geometry">
            <Array as="points">
              <mxPoint x="380" y="220" />
            </Array>
          </mxGeometry>
        </mxCell>
        <mxCell id="7O5fhOuD_cf1nNYJ2rgv-13" value="Verify config files" style="edgeLabel;html=1;align=center;verticalAlign=middle;resizable=0;points=[];" vertex="1" connectable="0" parent="7O5fhOuD_cf1nNYJ2rgv-12">
          <mxGeometry x="-0.1486" y="-1" relative="1" as="geometry">
            <mxPoint as="offset" />
          </mxGeometry>
        </mxCell>
        <mxCell id="7O5fhOuD_cf1nNYJ2rgv-14" value="&lt;font style=&quot;font-size: 9px;&quot;&gt;Unconfigured&lt;/font&gt;" style="shape=umlFrame;whiteSpace=wrap;html=1;pointerEvents=0;dashed=1;" vertex="1" parent="1">
          <mxGeometry x="120" y="240" width="400" height="60" as="geometry" />
        </mxCell>
        <mxCell id="7O5fhOuD_cf1nNYJ2rgv-15" value="404 config not found" style="edgeStyle=elbowEdgeStyle;rounded=0;orthogonalLoop=1;jettySize=auto;html=1;elbow=vertical;curved=0;" edge="1" parent="1" source="7O5fhOuD_cf1nNYJ2rgv-9" target="7O5fhOuD_cf1nNYJ2rgv-5">
          <mxGeometry relative="1" as="geometry">
            <Array as="points">
              <mxPoint x="240" y="260" />
            </Array>
          </mxGeometry>
        </mxCell>
        <mxCell id="7O5fhOuD_cf1nNYJ2rgv-16" style="edgeStyle=elbowEdgeStyle;rounded=0;orthogonalLoop=1;jettySize=auto;html=1;elbow=vertical;curved=0;" edge="1" parent="1" source="7O5fhOuD_cf1nNYJ2rgv-5" target="7O5fhOuD_cf1nNYJ2rgv-9">
          <mxGeometry relative="1" as="geometry">
            <Array as="points">
              <mxPoint x="440" y="280" />
            </Array>
          </mxGeometry>
        </mxCell>
        <mxCell id="7O5fhOuD_cf1nNYJ2rgv-17" value="Raise config template PR" style="edgeLabel;html=1;align=center;verticalAlign=middle;resizable=0;points=[];" vertex="1" connectable="0" parent="7O5fhOuD_cf1nNYJ2rgv-16">
          <mxGeometry x="-0.1486" y="-1" relative="1" as="geometry">
            <mxPoint as="offset" />
          </mxGeometry>
        </mxCell>
        <mxCell id="7O5fhOuD_cf1nNYJ2rgv-20" value="&lt;font style=&quot;font-size: 9px;&quot;&gt;Configured&lt;/font&gt;" style="shape=umlFrame;whiteSpace=wrap;html=1;pointerEvents=0;dashed=1;" vertex="1" parent="1">
          <mxGeometry x="120" y="320" width="400" height="60" as="geometry" />
        </mxCell>
        <mxCell id="7O5fhOuD_cf1nNYJ2rgv-21" value="Valid Config Present" style="edgeStyle=elbowEdgeStyle;rounded=0;orthogonalLoop=1;jettySize=auto;html=1;elbow=vertical;curved=0;" edge="1" parent="1" source="7O5fhOuD_cf1nNYJ2rgv-9" target="7O5fhOuD_cf1nNYJ2rgv-5">
          <mxGeometry relative="1" as="geometry">
            <Array as="points">
              <mxPoint x="330" y="330" />
            </Array>
          </mxGeometry>
        </mxCell>
        <mxCell id="7O5fhOuD_cf1nNYJ2rgv-63" value="Kalakaar installation" style="text;html=1;strokeColor=none;fillColor=none;align=center;verticalAlign=middle;whiteSpace=wrap;rounded=0;" vertex="1" parent="1">
          <mxGeometry x="170" y="20" width="60" height="30" as="geometry" />
        </mxCell>
      </root>
    </mxGraphModel>
  </diagram>
  <diagram id="O6SN9AH3Dw8jMcY8-cdx" name="Execution">
    <mxGraphModel dx="2522" dy="1362" grid="1" gridSize="10" guides="1" tooltips="1" connect="1" arrows="1" fold="1" page="1" pageScale="1" pageWidth="827" pageHeight="1169" math="0" shadow="0">
      <root>
        <mxCell id="0" />
        <mxCell id="1" parent="0" />
        <mxCell id="lS5LTBEqvpHrRGaMsw9m-1" style="rounded=0;orthogonalLoop=1;jettySize=auto;html=1;" edge="1" parent="1" source="lS5LTBEqvpHrRGaMsw9m-3" target="lS5LTBEqvpHrRGaMsw9m-5">
          <mxGeometry relative="1" as="geometry" />
        </mxCell>
        <mxCell id="lS5LTBEqvpHrRGaMsw9m-2" value="Commit/PR/Branch" style="edgeLabel;html=1;align=center;verticalAlign=middle;resizable=0;points=[];" vertex="1" connectable="0" parent="lS5LTBEqvpHrRGaMsw9m-1">
          <mxGeometry x="-0.0942" y="-2" relative="1" as="geometry">
            <mxPoint as="offset" />
          </mxGeometry>
        </mxCell>
        <mxCell id="lS5LTBEqvpHrRGaMsw9m-3" value="User" style="shape=umlActor;verticalLabelPosition=bottom;verticalAlign=top;html=1;outlineConnect=0;" vertex="1" parent="1">
          <mxGeometry x="30" y="327" width="30" height="60" as="geometry" />
        </mxCell>
        <mxCell id="lS5LTBEqvpHrRGaMsw9m-4" value="Remote Version Control Service" style="shape=umlLifeline;perimeter=lifelinePerimeter;whiteSpace=wrap;html=1;container=1;dropTarget=0;collapsible=0;recursiveResize=0;outlineConnect=0;portConstraint=eastwest;newEdgeStyle={&quot;edgeStyle&quot;:&quot;elbowEdgeStyle&quot;,&quot;elbow&quot;:&quot;vertical&quot;,&quot;curved&quot;:0,&quot;rounded&quot;:0};" vertex="1" parent="1">
          <mxGeometry x="170" y="257" width="100" height="510" as="geometry" />
        </mxCell>
        <mxCell id="lS5LTBEqvpHrRGaMsw9m-5" value="" style="html=1;points=[];perimeter=orthogonalPerimeter;outlineConnect=0;targetShapes=umlLifeline;portConstraint=eastwest;newEdgeStyle={&quot;edgeStyle&quot;:&quot;elbowEdgeStyle&quot;,&quot;elbow&quot;:&quot;vertical&quot;,&quot;curved&quot;:0,&quot;rounded&quot;:0};" vertex="1" parent="lS5LTBEqvpHrRGaMsw9m-4">
          <mxGeometry x="45" y="90" width="10" height="170" as="geometry" />
        </mxCell>
        <mxCell id="lS5LTBEqvpHrRGaMsw9m-6" value="Internal Event" style="html=1;align=left;spacingLeft=2;endArrow=block;rounded=0;edgeStyle=orthogonalEdgeStyle;curved=0;rounded=0;" edge="1" parent="lS5LTBEqvpHrRGaMsw9m-4" source="lS5LTBEqvpHrRGaMsw9m-5" target="lS5LTBEqvpHrRGaMsw9m-5">
          <mxGeometry relative="1" as="geometry">
            <mxPoint x="60" y="110" as="sourcePoint" />
            <Array as="points">
              <mxPoint x="75" y="100" />
              <mxPoint x="75" y="120" />
            </Array>
            <mxPoint x="65" y="140" as="targetPoint" />
          </mxGeometry>
        </mxCell>
        <mxCell id="lS5LTBEqvpHrRGaMsw9m-7" value="" style="html=1;points=[];perimeter=orthogonalPerimeter;outlineConnect=0;targetShapes=umlLifeline;portConstraint=eastwest;newEdgeStyle={&quot;edgeStyle&quot;:&quot;elbowEdgeStyle&quot;,&quot;elbow&quot;:&quot;vertical&quot;,&quot;curved&quot;:0,&quot;rounded&quot;:0};" vertex="1" parent="lS5LTBEqvpHrRGaMsw9m-4">
          <mxGeometry x="45" y="350" width="10" height="60" as="geometry" />
        </mxCell>
        <mxCell id="lS5LTBEqvpHrRGaMsw9m-8" value="Internal Event" style="html=1;align=left;spacingLeft=2;endArrow=block;rounded=0;edgeStyle=orthogonalEdgeStyle;curved=0;rounded=0;" edge="1" parent="lS5LTBEqvpHrRGaMsw9m-4" source="lS5LTBEqvpHrRGaMsw9m-7" target="lS5LTBEqvpHrRGaMsw9m-7">
          <mxGeometry relative="1" as="geometry">
            <mxPoint x="60" y="380" as="sourcePoint" />
            <Array as="points">
              <mxPoint x="80" y="380" />
              <mxPoint x="80" y="400" />
            </Array>
            <mxPoint x="60" y="400" as="targetPoint" />
          </mxGeometry>
        </mxCell>
        <mxCell id="lS5LTBEqvpHrRGaMsw9m-9" value="Kalakaar" style="shape=umlLifeline;perimeter=lifelinePerimeter;whiteSpace=wrap;html=1;container=1;dropTarget=0;collapsible=0;recursiveResize=0;outlineConnect=0;portConstraint=eastwest;newEdgeStyle={&quot;edgeStyle&quot;:&quot;elbowEdgeStyle&quot;,&quot;elbow&quot;:&quot;vertical&quot;,&quot;curved&quot;:0,&quot;rounded&quot;:0};" vertex="1" parent="1">
          <mxGeometry x="460" y="257" width="100" height="510" as="geometry" />
        </mxCell>
        <mxCell id="lS5LTBEqvpHrRGaMsw9m-10" value="" style="html=1;points=[];perimeter=orthogonalPerimeter;outlineConnect=0;targetShapes=umlLifeline;portConstraint=eastwest;newEdgeStyle={&quot;edgeStyle&quot;:&quot;elbowEdgeStyle&quot;,&quot;elbow&quot;:&quot;vertical&quot;,&quot;curved&quot;:0,&quot;rounded&quot;:0};" vertex="1" parent="lS5LTBEqvpHrRGaMsw9m-9">
          <mxGeometry x="45" y="140" width="10" height="320" as="geometry" />
        </mxCell>
        <mxCell id="lS5LTBEqvpHrRGaMsw9m-11" value="Execute Pipeline" style="html=1;align=left;spacingLeft=2;endArrow=block;rounded=0;edgeStyle=orthogonalEdgeStyle;curved=0;rounded=0;" edge="1" parent="lS5LTBEqvpHrRGaMsw9m-9" source="lS5LTBEqvpHrRGaMsw9m-10" target="lS5LTBEqvpHrRGaMsw9m-10">
          <mxGeometry relative="1" as="geometry">
            <mxPoint x="60" y="250" as="sourcePoint" />
            <Array as="points">
              <mxPoint x="80" y="250" />
              <mxPoint x="80" y="330" />
            </Array>
            <mxPoint x="60" y="270" as="targetPoint" />
          </mxGeometry>
        </mxCell>
        <mxCell id="lS5LTBEqvpHrRGaMsw9m-12" value="Webhook Call" style="edgeStyle=elbowEdgeStyle;rounded=0;orthogonalLoop=1;jettySize=auto;html=1;elbow=vertical;curved=0;" edge="1" parent="1" source="lS5LTBEqvpHrRGaMsw9m-5" target="lS5LTBEqvpHrRGaMsw9m-10">
          <mxGeometry relative="1" as="geometry">
            <Array as="points">
              <mxPoint x="370" y="417" />
            </Array>
          </mxGeometry>
        </mxCell>
        <mxCell id="lS5LTBEqvpHrRGaMsw9m-13" value="Clone Repo" style="edgeStyle=elbowEdgeStyle;rounded=0;orthogonalLoop=1;jettySize=auto;html=1;elbow=horizontal;curved=0;" edge="1" parent="1" source="lS5LTBEqvpHrRGaMsw9m-10" target="lS5LTBEqvpHrRGaMsw9m-5">
          <mxGeometry relative="1" as="geometry">
            <Array as="points">
              <mxPoint x="360" y="457" />
            </Array>
          </mxGeometry>
        </mxCell>
        <mxCell id="lS5LTBEqvpHrRGaMsw9m-14" value="Repo Files" style="edgeStyle=elbowEdgeStyle;rounded=0;orthogonalLoop=1;jettySize=auto;html=1;elbow=vertical;curved=0;" edge="1" parent="1" source="lS5LTBEqvpHrRGaMsw9m-5" target="lS5LTBEqvpHrRGaMsw9m-10">
          <mxGeometry relative="1" as="geometry">
            <Array as="points">
              <mxPoint x="430" y="487" />
            </Array>
          </mxGeometry>
        </mxCell>
        <mxCell id="lS5LTBEqvpHrRGaMsw9m-15" value="Success/Failure Update" style="edgeStyle=elbowEdgeStyle;rounded=0;orthogonalLoop=1;jettySize=auto;html=1;elbow=vertical;curved=0;" edge="1" parent="1" source="lS5LTBEqvpHrRGaMsw9m-10" target="lS5LTBEqvpHrRGaMsw9m-7">
          <mxGeometry relative="1" as="geometry">
            <Array as="points">
              <mxPoint x="460" y="617" />
            </Array>
          </mxGeometry>
        </mxCell>
        <mxCell id="lS5LTBEqvpHrRGaMsw9m-16" value="Registered webhook" style="shape=umlLifeline;perimeter=lifelinePerimeter;whiteSpace=wrap;html=1;container=1;dropTarget=0;collapsible=0;recursiveResize=0;outlineConnect=0;portConstraint=eastwest;newEdgeStyle={&quot;edgeStyle&quot;:&quot;elbowEdgeStyle&quot;,&quot;elbow&quot;:&quot;vertical&quot;,&quot;curved&quot;:0,&quot;rounded&quot;:0};" vertex="1" parent="1">
          <mxGeometry x="670" y="257" width="100" height="510" as="geometry" />
        </mxCell>
        <mxCell id="lS5LTBEqvpHrRGaMsw9m-17" value="" style="html=1;points=[];perimeter=orthogonalPerimeter;outlineConnect=0;targetShapes=umlLifeline;portConstraint=eastwest;newEdgeStyle={&quot;edgeStyle&quot;:&quot;elbowEdgeStyle&quot;,&quot;elbow&quot;:&quot;vertical&quot;,&quot;curved&quot;:0,&quot;rounded&quot;:0};" vertex="1" parent="lS5LTBEqvpHrRGaMsw9m-16">
          <mxGeometry x="45" y="140" width="10" height="240" as="geometry" />
        </mxCell>
        <mxCell id="lS5LTBEqvpHrRGaMsw9m-18" value="Execute Pipeline" style="html=1;align=left;spacingLeft=2;endArrow=block;rounded=0;edgeStyle=orthogonalEdgeStyle;curved=0;rounded=0;" edge="1" parent="lS5LTBEqvpHrRGaMsw9m-16" source="lS5LTBEqvpHrRGaMsw9m-17" target="lS5LTBEqvpHrRGaMsw9m-17">
          <mxGeometry relative="1" as="geometry">
            <mxPoint x="60" y="250" as="sourcePoint" />
            <Array as="points">
              <mxPoint x="80" y="250" />
              <mxPoint x="80" y="330" />
            </Array>
            <mxPoint x="60" y="270" as="targetPoint" />
          </mxGeometry>
        </mxCell>
        <mxCell id="lS5LTBEqvpHrRGaMsw9m-19" value="Change Event Call" style="edgeStyle=elbowEdgeStyle;rounded=0;orthogonalLoop=1;jettySize=auto;html=1;elbow=vertical;curved=0;" edge="1" parent="1" source="lS5LTBEqvpHrRGaMsw9m-10" target="lS5LTBEqvpHrRGaMsw9m-17">
          <mxGeometry relative="1" as="geometry">
            <Array as="points">
              <mxPoint x="620" y="427" />
            </Array>
          </mxGeometry>
        </mxCell>
        <mxCell id="lS5LTBEqvpHrRGaMsw9m-20" value="Change Event Call" style="edgeStyle=elbowEdgeStyle;rounded=0;orthogonalLoop=1;jettySize=auto;html=1;elbow=vertical;curved=0;" edge="1" parent="1" source="lS5LTBEqvpHrRGaMsw9m-10" target="lS5LTBEqvpHrRGaMsw9m-17">
          <mxGeometry relative="1" as="geometry">
            <Array as="points">
              <mxPoint x="620" y="467" />
            </Array>
          </mxGeometry>
        </mxCell>
        <mxCell id="lS5LTBEqvpHrRGaMsw9m-21" value="Change Event Call (Updates)" style="edgeStyle=elbowEdgeStyle;rounded=0;orthogonalLoop=1;jettySize=auto;html=1;elbow=vertical;curved=0;" edge="1" parent="1" source="lS5LTBEqvpHrRGaMsw9m-10" target="lS5LTBEqvpHrRGaMsw9m-17">
          <mxGeometry relative="1" as="geometry">
            <mxPoint x="525" y="477" as="sourcePoint" />
            <mxPoint x="725" y="477" as="targetPoint" />
            <Array as="points">
              <mxPoint x="540" y="527" />
              <mxPoint x="630" y="477" />
            </Array>
          </mxGeometry>
        </mxCell>
        <mxCell id="lS5LTBEqvpHrRGaMsw9m-22" value="CEC (Termination)" style="edgeStyle=elbowEdgeStyle;rounded=0;orthogonalLoop=1;jettySize=auto;html=1;elbow=vertical;curved=0;" edge="1" parent="1" source="lS5LTBEqvpHrRGaMsw9m-10" target="lS5LTBEqvpHrRGaMsw9m-17">
          <mxGeometry relative="1" as="geometry">
            <Array as="points">
              <mxPoint x="610" y="607" />
            </Array>
          </mxGeometry>
        </mxCell>
        <mxCell id="lS5LTBEqvpHrRGaMsw9m-23" value="Pipeline Execution" style="text;html=1;strokeColor=none;fillColor=none;align=center;verticalAlign=middle;whiteSpace=wrap;rounded=0;" vertex="1" parent="1">
          <mxGeometry x="190" y="210" width="60" height="30" as="geometry" />
        </mxCell>
      </root>
    </mxGraphModel>
  </diagram>
</mxfile>
